<svg width="24" height="24" viewBox="0 0 24 24" fill="none" xmlns="http://www.w3.org/2000/svg">
<path d="M13.6933 11.9999L16.6494 9.04407C17.1171 8.57634 17.1171 7.81811 16.6494 7.35062C16.1821 6.88313 15.4234 6.88313 14.9561 7.35062L12.0001 10.3069L9.04401 7.35062C8.57676 6.88313 7.81805 6.88313 7.3508 7.35062C6.88307 7.81835 6.88307 8.57658 7.3508 9.04407L10.3066 11.9999L7.3508 14.9557C6.88307 15.4234 6.88307 16.1817 7.3508 16.6491C7.5843 16.8831 7.89109 16.9998 8.19741 16.9998C8.50348 16.9998 8.81051 16.8831 9.04401 16.6491L12.0001 13.6933L14.9561 16.6494C15.1899 16.8834 15.4964 17 15.8027 17C16.1091 17 16.4158 16.8834 16.6494 16.6494C17.1171 16.1817 17.1171 15.4234 16.6494 14.9559L13.6933 11.9999Z" fill="#525252"/>
</svg>
